<svg xmlns="http://www.w3.org/2000/svg" viewBox="0 0 48 48">
  <rect width="48" height="48" rx="10" fill="#2d2b22"/>
  <path d="M6 0h7v48H6zM20 0h7v48h-7zM34 0h7v48h-7z" fill="#55543f"/>
  <circle cx="24" cy="26" r="15" fill="#fffaf1"/>
  <path d="M15 28h18l-4 12H19z" fill="#98a181"/>
  <path d="M14 27h20l-3 4H17z" fill="#171612"/>
  <path d="M13 27c4-12 17-13 23-2-6-3-13-2-23 2z" fill="#e85a86"/>
  <path d="M19 20c2-9 12-10 15-1-5-2-9-1-15 1z" fill="#d91d35"/>
  <path d="M11 9h26" stroke="#cf3f68" stroke-width="6" stroke-linecap="round"/>
  <path d="M11 9h26" stroke="#fff8ef" stroke-width="2" stroke-linecap="round"/>
</svg>
